P3
16 16
255
255 255 255 255 255 255 255 255 255 0 0 0 0 0 0 0 0 0 0 0 0 0 0 0 0 0 0 255 255 255 255 255 255 255 255 255 255 255 255 255 255 255 255 255 255 255 255 255 255 255 255 255 255 255 0 0 0 213 238 253 217 240 254 219 239 254 219 239 254 217 240 254 213 239 253 0 0 0 254 254 254 255 255 255 255 255 255 255 255 255 255 255 255 255 255 255 255 255 255 0 0 0 216 239 254 216 239 255 0 0 0 0 0 0 0 0 0 0 0 0 216 239 255 216 239 255 0 0 0 255 255 255 255 255 255 255 255 255 255 255 255 255 255 255 255 255 255 0 0 0 215 240 254 0 0 0 156 199 215 156 199 215 156 199 215 156 199 215 0 0 0 213 239 253 0 0 0 255 255 255 255 255 255 255 255 255 255 255 255 255 255 255 0 0 0 216 239 255 217 239 254 216 239 255 0 0 0 0 0 0 0 0 0 0 0 0 212 235 249 213 241 255 0 0 0 253 253 253 255 255 255 255 255 255 255 255 255 255 255 255 0 0 0 216 240 254 219 238 254 216 238 254 216 239 255 216 239 255 216 239 255 216 239 255 214 240 254 213 241 255 0 0 0 255 255 255 255 255 255 255 255 255 255 255 255 255 255 255 0 0 0 216 240 254 216 239 254 216 238 254 216 239 255 216 239 255 216 239 255 216 239 255 213 240 254 213 241 255 213 238 252 0 0 0 255 255 255 255 255 255 255 255 255 255 255 255 0 0 0 216 240 254 214 239 254 216 239 255 216 239 255 215 239 255 214 239 254 213 240 254 216 239 254 213 241 255 214 240 254 0 0 0 255 255 255 255 255 255 255 255 255 255 255 255 0 0 0 216 240 254 214 240 255 216 239 254 215 238 254 213 240 254 213 241 255 213 241 255 214 241 255 213 241 255 214 240 255 0 0 0 252 252 252 255 255 255 255 255 255 255 255 255 0 0 0 215 240 254 214 240 254 214 239 254 214 240 255 213 241 255 215 240 254 214 241 254 213 241 255 213 241 255 213 241 255 0 0 0 0 0 0 255 255 255 255 255 255 255 255 255 0 0 0 214 240 254 213 241 255 213 241 255 216 239 255 0 0 0 0 0 0 0 0 0 0 0 0 216 239 255 219 239 254 217 237 251 0 0 0 255 255 255 255 255 255 255 255 255 0 0 0 216 240 254 213 241 255 216 240 254 0 0 0 253 253 253 255 255 255 255 255 255 255 255 255 0 0 0 215 240 255 219 239 254 0 0 0 0 0 0 0 0 0 255 255 255 0 0 0 219 240 254 216 239 254 215 240 254 0 0 0 255 255 255 252 252 252 255 255 255 0 0 0 216 239 255 215 240 255 215 240 254 216 236 251 216 239 255 216 239 255 0 0 0 0 0 0 217 240 254 217 240 255 216 240 254 216 239 255 0 0 0 0 0 0 255 255 255 255 255 255 0 0 0 0 0 0 216 239 255 217 236 250 218 237 252 216 239 255 0 0 0 0 0 0 216 239 255 215 240 254 216 239 254 215 240 254 218 240 254 220 238 253 0 0 0 255 255 255 255 255 255 255 255 255 0 0 0 0 0 0 0 0 0 0 0 0 255 255 255 255 255 255 0 0 0 0 0 0 0 0 0 0 0 0 0 0 0 0 0 0 255 255 255 255 255 255 255 255 255 255 255 255 255 255 255 255 255 255 255 255 255 255 255 255 255 255 255
